<svg id="Capa_1" enable-background="new 0 0 512 512" height="25" viewBox="0 0 512 512" width="25" xmlns="http://www.w3.org/2000/svg"><g><path d="m0 233.674 236.899 277.838 236.899-277.838z" fill="#017b4e"/><path d="m473.796 233.673-236.9 277.842-10.967-12.862 223.929-264.98z" fill="#026841"/><path d="m149.505 233.674 87.394 277.837 87.395-277.837z" fill="#57be92"/><path d="m413.506 130.522h-353.214l-60.292 103.152h473.798z" fill="#57be92"/><g fill="#98d5b9"><path d="m236.899 130.522-87.394 103.152h87.394 87.395z"/><path d="m60.292 130.522 89.213 103.152h-149.505z"/><path d="m413.506 130.522-89.212 103.152h149.504z"/></g><path d="m473.796 233.673h-23.942l-50.63-86.635 14.285-16.517z" fill="#7acaa6"/><g><g fill="#fe9738"><path d="m383.314 4.388c-5.028 11.57-13.84 26.391-28.604 37.215-3.482 2.553-3.482 7.835 0 10.388 14.764 10.823 23.576 25.644 28.604 37.215 2.261 5.203 9.658 5.203 11.919 0 5.028-11.57 13.84-26.391 28.604-37.215 3.482-2.553 3.482-7.835 0-10.388-14.764-10.823-23.576-25.644-28.604-37.215-2.261-5.204-9.658-5.204-11.919 0z"/><path d="m475.948 74.899c-4.202 9.67-11.568 22.058-23.907 31.104-2.91 2.134-2.91 6.548 0 8.682 12.339 9.046 19.705 21.433 23.907 31.104 1.89 4.349 8.072 4.349 9.962 0 4.202-9.67 11.568-22.058 23.907-31.104 2.91-2.134 2.91-6.548 0-8.682-12.339-9.046-19.705-21.433-23.907-31.104-1.89-4.348-8.072-4.348-9.962 0z"/></g><g fill="#fe860a"><path d="m423.84 51.994c-14.763 10.816-23.582 25.637-28.609 37.206-2.258 5.21-9.658 5.21-11.916 0-1.438-3.3-3.174-6.851-5.268-10.508 5.259-9.176 7.606-18.96 18.162-26.698 3.483-2.557 3.483-7.835 0-10.392-10.556-7.748-12.904-17.532-18.162-26.708 2.094-3.657 3.831-7.208 5.268-10.508 2.258-5.201 9.658-5.201 11.916 0 5.027 11.569 13.846 26.39 28.609 37.216 3.483 2.557 3.483 7.835 0 10.392z"/><path d="m509.821 114.683c-12.341 9.051-19.713 21.44-23.91 31.108-1.891 4.352-8.076 4.352-9.967 0-1.582-3.667-3.628-7.719-6.233-11.829 4.245-6.745 6.32-13.653 13.981-19.278 2.904-2.132 2.904-6.542 0-8.684-7.661-5.616-9.736-12.524-13.981-19.269 2.605-4.12 4.651-8.163 6.233-11.829 1.891-4.352 8.076-4.352 9.967 0 4.197 9.668 11.569 22.057 23.91 31.098 2.904 2.141 2.904 6.55 0 8.683z"/></g></g></g></svg>